<svg class="diagram-root" style="background: #f5f6f6" xmlns="http://www.w3.org/2000/svg" xmlns:xlink="http://www.w3.org/1999/xlink"><style>.diagram-root { font-family: "Helvetica Neue", sans-serif; font-size: 12px; } .t { overflow: visible; } .t-bg { y: 40; fill: #fff;   } .th { fill: #005aa0;   } .tht { fill: #fff; font-size: 14px;  } .tf { fill: #323c46; overflow: visible; } .tf.pk { fill: #005aa0; font-weight: bold; } .tf.fk { font-weight: bold; } .ty { fill: #adb1b5; font-weight: normal; text-anchor: end; } .r { fill: transparent; stroke: #c3c3c3; stroke-width: 1; } .l { stroke: 1; } .i { fill: #c2c7ce; stroke: #c2c7ce; } .i.ix { fill: #afb3b6; stroke: #000; } .fa { fill: transparent; overflow: visible; } .fa .bg.hover { fill: #f7f7f7; } .c { cy: 12; r: 4; stroke: #d2d2dc; fill: #d2d2dc; } .hr { fill: transparent; stroke: #323c46; stroke-opacity: 0.035; stroke-width: 13; } .dc { stroke: #fa5a3c; fill: #fa5a3c; } .x { stroke: white; stroke-width: 1; } .hl .th { fill: #1b9bff; } .hl .tht {  } .fhl .bg { fill: #e7f4ff; } .fhls .bg {  } .r.hl { stroke: #1b9bff; } .dim { opacity: 0.25; }</style><g class="drawing-wrapper" transform="translate(22, -33) scale(1,1)"><g class="rs"><path d="M 520 212 m -1, 0 a 1,1 0 1,0 2,0 a 1,1 0 1,0 -2,0 M 520 212 m -0.5, 0 a 0.5,0.5 0 1,0 1,0 a 0.5,0.5 0 1,0 -1,0  M520 212 L520 212 508 212 M 520 218 m -1, 0 a 1,1 0 1,0 2,0 a 1,1 0 1,0 -2,0 M 520 218 m -0.5, 0 a 0.5,0.5 0 1,0 1,0 a 0.5,0.5 0 1,0 -1,0  M520 218 L520 218 513 212 520 206 M 520 206 m -1, 0 a 1,1 0 1,0 2,0 a 1,1 0 1,0 -2,0 M 520 206 m -0.5, 0 a 0.5,0.5 0 1,0 1,0 a 0.5,0.5 0 1,0 -1,0  M508 212 Q 425.77 212, 343.53 307.5 T 179.05 403 M 167.05 403 m -1, 0 a 1,1 0 1,0 2,0 a 1,1 0 1,0 -2,0 M 167.05 403 m -0.5, 0 a 0.5,0.5 0 1,0 1,0 a 0.5,0.5 0 1,0 -1,0  M167.05 403 L167.05 403 179.05 403 M173.05 409 L173.05 409 173.05 397" id="h1230738906" class="r"></path><path d="M 520 237 m -1, 0 a 1,1 0 1,0 2,0 a 1,1 0 1,0 -2,0 M 520 237 m -0.5, 0 a 0.5,0.5 0 1,0 1,0 a 0.5,0.5 0 1,0 -1,0  M520 237 L520 237 508 237 M 520 243 m -1, 0 a 1,1 0 1,0 2,0 a 1,1 0 1,0 -2,0 M 520 243 m -0.5, 0 a 0.5,0.5 0 1,0 1,0 a 0.5,0.5 0 1,0 -1,0  M520 243 L520 243 513 237 520 231 M 520 231 m -1, 0 a 1,1 0 1,0 2,0 a 1,1 0 1,0 -2,0 M 520 231 m -0.5, 0 a 0.5,0.5 0 1,0 1,0 a 0.5,0.5 0 1,0 -1,0  M508 237 Q 456.94 237, 405.87 478 T 303.73 719 M 291.73 719 m -1, 0 a 1,1 0 1,0 2,0 a 1,1 0 1,0 -2,0 M 291.73 719 m -0.5, 0 a 0.5,0.5 0 1,0 1,0 a 0.5,0.5 0 1,0 -1,0  M291.73 719 L291.73 719 303.73 719 M297.73 725 L297.73 725 297.73 713" id="h1395490900" class="r"></path><path d="M 679.04 362 m -1, 0 a 1,1 0 1,0 2,0 a 1,1 0 1,0 -2,0 M 679.04 362 m -0.5, 0 a 0.5,0.5 0 1,0 1,0 a 0.5,0.5 0 1,0 -1,0  M679.04 362 L679.04 362 691.04 362 M 679.04 368 m -1, 0 a 1,1 0 1,0 2,0 a 1,1 0 1,0 -2,0 M 679.04 368 m -0.5, 0 a 0.5,0.5 0 1,0 1,0 a 0.5,0.5 0 1,0 -1,0  M679.04 368 L679.04 368 686.04 362 679.04 356 M 679.04 356 m -1, 0 a 1,1 0 1,0 2,0 a 1,1 0 1,0 -2,0 M 679.04 356 m -0.5, 0 a 0.5,0.5 0 1,0 1,0 a 0.5,0.5 0 1,0 -1,0  M691.04 362 Q 713.28 362, 735.52 303.5 T 780 245 M 792 245 m -1, 0 a 1,1 0 1,0 2,0 a 1,1 0 1,0 -2,0 M 792 245 m -0.5, 0 a 0.5,0.5 0 1,0 1,0 a 0.5,0.5 0 1,0 -1,0  M792 245 L792 245 780 245 M786 251 L786 251 786 239" id="h1863316374" class="r"></path><path d="M 679.04 387 m -1, 0 a 1,1 0 1,0 2,0 a 1,1 0 1,0 -2,0 M 679.04 387 m -0.5, 0 a 0.5,0.5 0 1,0 1,0 a 0.5,0.5 0 1,0 -1,0  M679.04 387 L679.04 387 691.04 387 M 679.04 393 m -1, 0 a 1,1 0 1,0 2,0 a 1,1 0 1,0 -2,0 M 679.04 393 m -0.5, 0 a 0.5,0.5 0 1,0 1,0 a 0.5,0.5 0 1,0 -1,0  M679.04 393 L679.04 393 686.04 387 679.04 381 M 679.04 381 m -1, 0 a 1,1 0 1,0 2,0 a 1,1 0 1,0 -2,0 M 679.04 381 m -0.5, 0 a 0.5,0.5 0 1,0 1,0 a 0.5,0.5 0 1,0 -1,0  M691.04 387 Q 729.28 387, 767.52 457 T 844 527 M 856 527 m -1, 0 a 1,1 0 1,0 2,0 a 1,1 0 1,0 -2,0 M 856 527 m -0.5, 0 a 0.5,0.5 0 1,0 1,0 a 0.5,0.5 0 1,0 -1,0  M856 527 L856 527 844 527 M850 533 L850 533 850 521" id="h1748251365" class="r"></path><path d="M 520 412 m -1, 0 a 1,1 0 1,0 2,0 a 1,1 0 1,0 -2,0 M 520 412 m -0.5, 0 a 0.5,0.5 0 1,0 1,0 a 0.5,0.5 0 1,0 -1,0  M520 412 L520 412 508 412 M 520 418 m -1, 0 a 1,1 0 1,0 2,0 a 1,1 0 1,0 -2,0 M 520 418 m -0.5, 0 a 0.5,0.5 0 1,0 1,0 a 0.5,0.5 0 1,0 -1,0  M520 418 L520 418 513 412 520 406 M 520 406 m -1, 0 a 1,1 0 1,0 2,0 a 1,1 0 1,0 -2,0 M 520 406 m -0.5, 0 a 0.5,0.5 0 1,0 1,0 a 0.5,0.5 0 1,0 -1,0  M508 412 C 458 412, 404.6 663, 597 663 M 609 663 m -1, 0 a 1,1 0 1,0 2,0 a 1,1 0 1,0 -2,0 M 609 663 m -0.5, 0 a 0.5,0.5 0 1,0 1,0 a 0.5,0.5 0 1,0 -1,0  M609 663 L609 663 597 663 M603 669 L603 669 603 657" id="h201288521" class="r"></path><path d="M 792 120 m -1, 0 a 1,1 0 1,0 2,0 a 1,1 0 1,0 -2,0 M 792 120 m -0.5, 0 a 0.5,0.5 0 1,0 1,0 a 0.5,0.5 0 1,0 -1,0  M792 120 L792 120 780 120 M 792 126 m -1, 0 a 1,1 0 1,0 2,0 a 1,1 0 1,0 -2,0 M 792 126 m -0.5, 0 a 0.5,0.5 0 1,0 1,0 a 0.5,0.5 0 1,0 -1,0  M792 126 L792 126 785 120 792 114 M 792 114 m -1, 0 a 1,1 0 1,0 2,0 a 1,1 0 1,0 -2,0 M 792 114 m -0.5, 0 a 0.5,0.5 0 1,0 1,0 a 0.5,0.5 0 1,0 -1,0  M780 120 Q 757.76 120, 735.52 141 T 691.04 162 M 679.04 162 m -1, 0 a 1,1 0 1,0 2,0 a 1,1 0 1,0 -2,0 M 679.04 162 m -0.5, 0 a 0.5,0.5 0 1,0 1,0 a 0.5,0.5 0 1,0 -1,0  M679.04 162 L679.04 162 691.04 162 M685.04 168 L685.04 168 685.04 156" id="h2183577004" class="r"></path><path d="M 203.36 120 m -1, 0 a 1,1 0 1,0 2,0 a 1,1 0 1,0 -2,0 M 203.36 120 m -0.5, 0 a 0.5,0.5 0 1,0 1,0 a 0.5,0.5 0 1,0 -1,0  M203.36 120 L203.36 120 215.36 120 M 203.36 126 m -1, 0 a 1,1 0 1,0 2,0 a 1,1 0 1,0 -2,0 M 203.36 126 m -0.5, 0 a 0.5,0.5 0 1,0 1,0 a 0.5,0.5 0 1,0 -1,0  M203.36 126 L203.36 126 210.36 120 203.36 114 M 203.36 114 m -1, 0 a 1,1 0 1,0 2,0 a 1,1 0 1,0 -2,0 M 203.36 114 m -0.5, 0 a 0.5,0.5 0 1,0 1,0 a 0.5,0.5 0 1,0 -1,0  M215.36 120 Q 288.52 120, 361.68 141 T 508 162 M 520 162 m -1, 0 a 1,1 0 1,0 2,0 a 1,1 0 1,0 -2,0 M 520 162 m -0.5, 0 a 0.5,0.5 0 1,0 1,0 a 0.5,0.5 0 1,0 -1,0  M520 162 L520 162 508 162 M514 168 L514 168 514 156" id="h2619277513" class="r"></path></g><g class="hrs"></g><g class="ts"><svg width="159.04" height="325" x="520" y="105" id="h1393863590" class="t"><rect height="40" width="159.04" class="th"></rect><text x="13" y="25" class="tht">movies</text><rect height="285" width="159.04" class="t-bg"></rect><text x="13" y="61" class="tf pk">movie_ID<tspan x="146.04" class="ty">int</tspan></text><path d="M7,14A2,2 0 0,1 5,12A2,2 0 0,1 7,10A2,2 0 0,1 9,12A2,2 0 0,1 7,14M12.65,10C11.83,7.67 9.61,6 7, 6A6, 6 0 0, 0 1, 12A6, 6 0 0, 0 7, 18C9.61, 18 11.83, 16.33 12.65, 14H17V18H21V14H23V10H12.65Z" class="i pk" transform="translate(113.36617187499999, 48) scale(0.65)"></path><text x="13" y="86" class="tf">movie_name<tspan x="146.04" class="ty">string</tspan></text><path d="M814.545 581.818v-23.273H535.273v-93.09h-46.546v93.09H209.455v139.637H256V605.09h232.727v93.09h46.546v-93.09H768v93.09h46.545V581.819zM674.91 465.455H349.091V139.636h325.818v325.819zM325.82 884.364H139.635V698.182h186.182v186.182z m279.272 0H418.909V698.182h186.182v186.182z m279.273 0H698.182V698.182h186.182v186.182zM395.636 418.909h232.728V186.182H395.636v232.727zM186.182 837.82h93.09v-93.092h-93.09v93.091z m279.273 0h93.09v-93.092h-93.09v93.091z m279.272 0h93.091v-93.092h-93.09v93.091z" class="i ix" transform="translate(101.69624999999999, 75) scale(0.014)"></path><text x="13" y="111" class="tf fk">director_ID<tspan x="146.04" class="ty">int</tspan></text><text x="13" y="136" class="tf fk">genre_ID<tspan x="146.04" class="ty">int</tspan></text><text x="13" y="161" class="tf">budget<tspan x="146.04" class="ty">float</tspan></text><text x="13" y="186" class="tf">revenue<tspan x="146.04" class="ty">float</tspan></text><text x="13" y="211" class="tf">runtime<tspan x="146.04" class="ty">int</tspan></text><text x="13" y="236" class="tf">year<tspan x="146.04" class="ty">int</tspan></text><text x="13" y="261" class="tf fk">movie_rate<tspan x="146.04" class="ty">float</tspan></text><text x="13" y="286" class="tf fk">country_ID<tspan x="146.04" class="ty">int</tspan></text><text x="13" y="311" class="tf fk">clasicacion_ID<tspan x="146.04" class="ty">int</tspan></text></svg><svg width="157.73" height="100" x="134" y="662" id="h1738405699" class="t"><rect height="40" width="157.73" class="th"></rect><text x="13" y="25" class="tht">genero</text><rect height="60" width="157.73" class="t-bg"></rect><text x="13" y="61" class="tf pk">genre_ID<tspan x="144.73" class="ty">int</tspan></text><path d="M7,14A2,2 0 0,1 5,12A2,2 0 0,1 7,10A2,2 0 0,1 9,12A2,2 0 0,1 7,14M12.65,10C11.83,7.67 9.61,6 7, 6A6, 6 0 0, 0 1, 12A6, 6 0 0, 0 7, 18C9.61, 18 11.83, 16.33 12.65, 14H17V18H21V14H23V10H12.65Z" class="i pk" transform="translate(112.05617187499999, 48) scale(0.65)"></path><text x="13" y="86" class="tf">genre_name<tspan x="144.73" class="ty">string</tspan></text><path d="M814.545 581.818v-23.273H535.273v-93.09h-46.546v93.09H209.455v139.637H256V605.09h232.727v93.09h46.546v-93.09H768v93.09h46.545V581.819zM674.91 465.455H349.091V139.636h325.818v325.819zM325.82 884.364H139.635V698.182h186.182v186.182z m279.272 0H418.909V698.182h186.182v186.182z m279.273 0H698.182V698.182h186.182v186.182zM395.636 418.909h232.728V186.182H395.636v232.727zM186.182 837.82h93.09v-93.092h-93.09v93.091z m279.273 0h93.09v-93.092h-93.09v93.091z m279.272 0h93.091v-93.092h-93.09v93.091z" class="i ix" transform="translate(100.38624999999999, 75) scale(0.014)"></path></svg><svg width="167.05" height="100" x="0" y="346" id="h3358164272" class="t"><rect height="40" width="167.05" class="th"></rect><text x="13" y="25" class="tht">director</text><rect height="60" width="167.05" class="t-bg"></rect><text x="13" y="61" class="tf pk">director_ID<tspan x="154.05" class="ty">int</tspan></text><path d="M7,14A2,2 0 0,1 5,12A2,2 0 0,1 7,10A2,2 0 0,1 9,12A2,2 0 0,1 7,14M12.65,10C11.83,7.67 9.61,6 7, 6A6, 6 0 0, 0 1, 12A6, 6 0 0, 0 7, 18C9.61, 18 11.83, 16.33 12.65, 14H17V18H21V14H23V10H12.65Z" class="i pk" transform="translate(121.37617187500001, 48) scale(0.65)"></path><text x="13" y="86" class="tf">director_name<tspan x="154.05" class="ty">string</tspan></text><path d="M814.545 581.818v-23.273H535.273v-93.09h-46.546v93.09H209.455v139.637H256V605.09h232.727v93.09h46.546v-93.09H768v93.09h46.545V581.819zM674.91 465.455H349.091V139.636h325.818v325.819zM325.82 884.364H139.635V698.182h186.182v186.182z m279.272 0H418.909V698.182h186.182v186.182z m279.273 0H698.182V698.182h186.182v186.182zM395.636 418.909h232.728V186.182H395.636v232.727zM186.182 837.82h93.09v-93.092h-93.09v93.091z m279.273 0h93.09v-93.092h-93.09v93.091z m279.272 0h93.091v-93.092h-93.09v93.091z" class="i ix" transform="translate(109.70625000000001, 75) scale(0.014)"></path></svg><svg width="151.39" height="100" x="856" y="470" id="h3233356384" class="t"><rect height="40" width="151.39" class="th"></rect><text x="13" y="25" class="tht">country</text><rect height="60" width="151.39" class="t-bg"></rect><text x="13" y="61" class="tf pk">country_ID<tspan x="138.39" class="ty">int</tspan></text><path d="M7,14A2,2 0 0,1 5,12A2,2 0 0,1 7,10A2,2 0 0,1 9,12A2,2 0 0,1 7,14M12.65,10C11.83,7.67 9.61,6 7, 6A6, 6 0 0, 0 1, 12A6, 6 0 0, 0 7, 18C9.61, 18 11.83, 16.33 12.65, 14H17V18H21V14H23V10H12.65Z" class="i pk" transform="translate(105.71617187499999, 48) scale(0.65)"></path><text x="13" y="86" class="tf">country_name<tspan x="138.39" class="ty">string</tspan></text></svg><svg width="156.07" height="200" x="792" y="63" id="h4225486869" class="t"><rect height="40" width="156.07" class="th"></rect><text x="13" y="25" class="tht">movie_rate</text><rect height="160" width="156.07" class="t-bg"></rect><text x="13" y="61" class="tf pk">movie_ID<tspan x="143.07" class="ty">int</tspan></text><path d="M7,14A2,2 0 0,1 5,12A2,2 0 0,1 7,10A2,2 0 0,1 9,12A2,2 0 0,1 7,14M12.65,10C11.83,7.67 9.61,6 7, 6A6, 6 0 0, 0 1, 12A6, 6 0 0, 0 7, 18C9.61, 18 11.83, 16.33 12.65, 14H17V18H21V14H23V10H12.65Z" class="i pk" transform="translate(110.396171875, 48) scale(0.65)"></path><text x="13" y="86" class="tf">imdb_rate<tspan x="143.07" class="ty">float</tspan></text><text x="13" y="111" class="tf">tomatoe_rate<tspan x="143.07" class="ty">float</tspan></text><text x="13" y="136" class="tf">imdb_votes<tspan x="143.07" class="ty">float</tspan></text><text x="13" y="161" class="tf">imdb_votes_count<tspan x="143.07" class="ty">int</tspan></text><text x="13" y="186" class="tf fk">movie_rate<tspan x="143.07" class="ty">float</tspan></text></svg><svg width="176.73" height="100" x="609" y="606" id="h2362274957" class="t"><rect height="40" width="176.73" class="th"></rect><text x="13" y="25" class="tht">clasificacion</text><rect height="60" width="176.73" class="t-bg"></rect><text x="13" y="61" class="tf pk">clasificacion_ID<tspan x="163.73" class="ty">int</tspan></text><path d="M7,14A2,2 0 0,1 5,12A2,2 0 0,1 7,10A2,2 0 0,1 9,12A2,2 0 0,1 7,14M12.65,10C11.83,7.67 9.61,6 7, 6A6, 6 0 0, 0 1, 12A6, 6 0 0, 0 7, 18C9.61, 18 11.83, 16.33 12.65, 14H17V18H21V14H23V10H12.65Z" class="i pk" transform="translate(131.056171875, 48) scale(0.65)"></path><text x="13" y="86" class="tf">clasificacion_name<tspan x="163.73" class="ty">string</tspan></text></svg><svg width="129.36" height="175" x="74" y="63" id="h700474758" class="t"><rect height="40" width="129.36" class="th"></rect><text x="13" y="25" class="tht">streaming_disp</text><rect height="135" width="129.36" class="t-bg"></rect><text x="13" y="61" class="tf pk">movie_ID<tspan x="116.36000000000001" class="ty">int</tspan></text><path d="M7,14A2,2 0 0,1 5,12A2,2 0 0,1 7,10A2,2 0 0,1 9,12A2,2 0 0,1 7,14M12.65,10C11.83,7.67 9.61,6 7, 6A6, 6 0 0, 0 1, 12A6, 6 0 0, 0 7, 18C9.61, 18 11.83, 16.33 12.65, 14H17V18H21V14H23V10H12.65Z" class="i pk" transform="translate(83.68617187500001, 48) scale(0.65)"></path><text x="13" y="86" class="tf">netflix<tspan x="116.36000000000001" class="ty">int</tspan></text><text x="13" y="111" class="tf">hulu<tspan x="116.36000000000001" class="ty">int</tspan></text><text x="13" y="136" class="tf">prime_video<tspan x="116.36000000000001" class="ty">int</tspan></text><text x="13" y="161" class="tf">disney<tspan x="116.36000000000001" class="ty">int</tspan></text></svg></g></g><text class="qdbd-link" x="10" y="20">www.quickdatabasediagrams.com</text></svg>